HIERARCHY
ROOT Hips
{
  OFFSET 2.26061 22.2878 23.7974
  CHANNELS 6 Xposition Yposition Zposition Zrotation Xrotation Yrotation
  JOINT LeftUpLeg
  {
    OFFSET 8.64259 1.95398 -2.38835
    CHANNELS 3 Zrotation Xrotation Yrotation
    JOINT LeftLeg
    {
      OFFSET 43.7702 0 0
      CHANNELS 3 Zrotation Xrotation Yrotation
      JOINT LeftFoot
      {
        OFFSET 40.6238 0 0
        CHANNELS 3 Zrotation Xrotation Yrotation
        JOINT LeftToeBase
        {
          OFFSET 12.7242 0 0
          CHANNELS 3 Zrotation Xrotation Yrotation
          End Site
          {
            OFFSET 0 0 0
          }
        }
      }
    }
  }
  JOINT RightUpLeg
  {
    OFFSET -8.2249 1.95398 -2.59336
    CHANNELS 3 Zrotation Xrotation Yrotation
    JOINT RightLeg
    {
      OFFSET 43.5653 0 0
      CHANNELS 3 Zrotation Xrotation Yrotation
      JOINT RightFoot
      {
        OFFSET 40.6238 0 0
        CHANNELS 3 Zrotation Xrotation Yrotation
        JOINT RightToeBase
        {
          OFFSET 12.7242 0 0
          CHANNELS 3 Zrotation Xrotation Yrotation
          End Site
          {
            OFFSET 0 0 0
          }
        }
      }
    }
  }
  JOINT Spine
  {
    OFFSET 0.165834 0.87714 6.61349
    CHANNELS 3 Zrotation Xrotation Yrotation
    JOINT Spine1
    {
      OFFSET 7.38963 1.71661e-005 0
      CHANNELS 3 Zrotation Xrotation Yrotation
      JOINT Spine2
      {
        OFFSET 11.9445 1.14441e-005 0
        CHANNELS 3 Zrotation Xrotation Yrotation
        JOINT Spine3
        {
          OFFSET 14.7254 4.19617e-005 0
          CHANNELS 3 Zrotation Xrotation Yrotation
          JOINT Spine4
          {
            OFFSET 10.9679 0 0
            CHANNELS 3 Zrotation Xrotation Yrotation
            JOINT RightShoulder
            {
              OFFSET 2.46616 -1.6653 3.69651
              CHANNELS 3 Zrotation Xrotation Yrotation
              JOINT RightArm
              {
                OFFSET 13.0012 0 0
                CHANNELS 3 Zrotation Xrotation Yrotation
                JOINT RightForeArm
                {
                  OFFSET 28.7848 1.52588e-005 0
                  CHANNELS 3 Zrotation Xrotation Yrotation
                  JOINT RightHand
                  {
                    OFFSET 26.5688 1.52588e-005 0
                    CHANNELS 3 Zrotation Xrotation Yrotation
                    End Site
                    {
                      OFFSET 0 0 0
                    }
                  }
                }
              }
            }
            JOINT LeftShoulder
            {
              OFFSET 2.38034 -1.29275 -3.7523
              CHANNELS 3 Zrotation Xrotation Yrotation
              JOINT LeftArm
              {
                OFFSET 16.3182 6.10351e-005 0
                CHANNELS 3 Zrotation Xrotation Yrotation
                JOINT LeftForeArm
                {
                  OFFSET 27.0901 0 0
                  CHANNELS 3 Zrotation Xrotation Yrotation
                  JOINT LeftHand
                  {
                    OFFSET 24.5451 1.52588e-005 0
                    CHANNELS 3 Zrotation Xrotation Yrotation
                    End Site
                    {
                      OFFSET 0 0 0
                    }
                  }
                }
              }
            }
            JOINT Neck
            {
              OFFSET 5.0226 -0.0266342 0
              CHANNELS 3 Zrotation Xrotation Yrotation
              JOINT Head
              {
                OFFSET 6.69363 2.86102e-005 0
                CHANNELS 3 Zrotation Xrotation Yrotation
                End Site
                {
                  OFFSET 0 0 0
                }
              }
            }
          }
        }
      }
    }
  }
}
MOTION
Frames:	15
Frame Time:	0.0416667
-47.0061 82.4607 -45.6055 106.17 -38.7028 104.166 -166.849 37.1356 88.6136 -37.937 13.4643 -5.88682 55.4979 -2.36493 -1.13168 12.8956 -14.1156 3.95369 168.201 43.7141 95.5536 -84.207 -0.0507934 0.125129 56.1158 -2.03654 -1.32542 28.9116 0.398082 -6.02969 0.788957 9.27067 -90.4292 8.33761 1.38547 -0.93214 -3.33298 1.34312 -0.992226 -25.8732 1.60156 -0.47259 -5.86055 1.60157 -0.472582 92.4606 -51.0195 -96.8531 17.0302 -10.9603 3.91298 14.1639 -1.35281 -73.042 -19.7526 0.140423 -6.37243 -94.5555 -48.8039 71.6134 -35.9874 9.27325 15.7521 5.96248 6.23594 -43.759 20.2137 1.70264 4.58752 -22.8686 -20.3878 2.9353 25.043 -24.0989 -15.9731 
-44.1186 80.914 -42.3681 105.149 -38.1873 101.747 -167.308 41.5495 85.934 -47.9643 13.3707 -4.19186 55.3313 -1.25508 2.22793 19.7312 -7.60037 1.55685 169.865 46.7969 93.1123 -77.74 1.07694 0.151722 60.8893 -2.88022 -1.74253 31.1823 0.391414 -5.95589 0.55193 9.3422 -90.1903 8.19169 1.01813 -0.435794 -3.47894 0.997956 -0.480184 -26.0172 1.10202 -0.109628 -6.00453 1.10201 -0.109631 92.8335 -51.8484 -96.1422 14.8627 -10.4687 -0.297327 13.0688 -1.23857 -70.6942 -18.7782 -0.0134612 -5.31321 -95.3365 -48.6399 70.3973 -35.5209 10.4934 16.6669 6.47751 9.4309 -39.6219 17.9103 1.70039 5.62964 -19.7309 -19.96 2.50328 23.6742 -23.4993 -15.8724 
-41.7675 80.5483 -39.2092 105.482 -35.8101 100.232 -167.173 41.5309 84.2217 -52.0163 13.397 -3.74596 54.6596 -1.41239 1.84672 24.4503 -3.4942 0.335508 171.345 45.5221 90.021 -64.765 2.08618 0.418798 61.6494 -2.44519 -1.42099 29.1535 0.272834 -4.15764 0.33299 9.69839 -90.0573 7.47754 0.640075 -0.144615 -4.19327 0.633083 -0.172655 -26.7297 0.653958 0.0544535 -6.71704 0.653946 0.0544435 91.9737 -52.1806 -97.374 14.0093 -8.3494 -2.35308 12.5596 0.10334 -69.0093 -16.4916 -0.0778039 -4.67777 -97.1291 -48.6031 67.7183 -33.3273 12.1042 15.9184 4.94872 10.7275 -35.2086 15.6387 1.33828 4.62734 -15.1378 -20.3515 3.19994 21.6209 -23.7042 -16.3077 
-38.8679 79.8821 -36.2236 105.978 -36.877 100.889 -166.001 42.7115 84.9088 -58.9887 11.8252 -3.44592 56.7521 0.682621 2.78324 30.5652 1.53373 -1.59957 173.51 43.0371 89.9669 -48.5716 -0.522467 0.267938 56.4828 -0.206735 0.0472172 22.9321 0.120782 -3.39677 0.616086 9.90822 -90.1805 7.05954 1.15292 -0.406075 -4.61098 1.13393 -0.456433 -27.1502 1.22166 -0.0407503 -7.13754 1.22164 -0.040762 90.4787 -50.9376 -99.8806 14.1567 -6.15548 -1.75828 10.6231 -0.123997 -67.6303 -16.5321 -0.0104242 -5.21786 -97.9151 -48.6464 66.5693 -31.7553 13.6995 14.8068 3.3496 11.794 -31.4565 13.8744 1.17826 4.50303 -13.3012 -21.0035 4.66637 21.3387 -24.3526 -16.45 
-35.8802 79.1116 -33.2079 105.16 -37.7278 101.442 -165.069 43.9867 85.8297 -65.5216 10.1847 -2.89884 62.4981 5.35734 3.54356 31.334 2.05787 -0.666306 174.667 40.0667 90.985 -30.8203 -8.41939 0.181778 46.2855 3.29896 3.10276 21.7102 0.40793 -6.16693 0.853907 9.91497 -90.3546 7.04851 1.5531 -0.76637 -4.62177 1.51787 -0.834 -27.1641 1.71161 -0.264049 -7.15142 1.71162 -0.264059 90.692 -51.1578 -99.5118 12.6849 -5.13626 -2.77362 7.94144 -1.8137 -65.8139 -17.5578 -0.117471 -4.4641 -97.9518 -48.5629 66.4863 -31.1856 13.165 15.5854 3.43779 12.342 -30.5096 14.0466 1.25583 4.94182 -13.9779 -21.0153 4.64153 22.6508 -24.4256 -15.9762 
-33.3849 78.8976 -30.0893 104.053 -36.4734 101.125 -165.411 44.0248 86.3835 -69.4567 9.40964 -2.21274 66.1962 8.59817 4.2008 32.2148 2.73345 -0.479944 174.288 37.245 91.3637 -18.9909 -10.277 0.793569 38.52 5.50034 5.61572 25.9748 0.435148 -6.41357 0.737097 9.95309 -90.4883 6.97266 1.26262 -1.01618 -4.69811 1.21668 -1.07077 -27.2369 1.50963 -0.589688 -7.22421 1.50963 -0.5897 89.8458 -51.311 -100.755 10.8136 -4.40557 -4.25078 5.53963 -3.90476 -62.9857 -18.4444 -0.32951 -3.1765 -96.9367 -48.7176 68.0421 -30.7871 11.5731 17.101 4.8019 12.2493 -32.2171 14.0947 1.43505 6.14538 -13.925 -20.8141 6.34689 22.8526 -24.443 -16.7836 
-31.2598 78.3355 -26.7068 102.852 -34.0229 99.7524 -166.462 45.4599 86.376 -74.451 11.8436 -1.28512 63.9917 7.47753 4.9824 37.2143 6.63667 0.529081 173.057 38.7441 91.0144 -21.7037 -6.16919 1.63383 37.3085 5.55709 5.84644 22.2245 0.26761 -4.89329 0.669649 9.97634 -90.509 6.92526 1.11937 -1.04995 -4.74566 1.07208 -1.0982 -27.2831 1.38317 -0.664965 -7.27041 1.38315 -0.66499 90.0636 -52.9179 -100.071 8.72879 -3.75662 -4.44488 3.47737 -6.00016 -62.0043 -18.3611 -0.513335 -1.97789 -96.9785 -47.7794 67.665 -30.0752 11.002 19.2155 5.19287 11.4731 -33.9942 15.7335 1.63021 6.39858 -14.8197 -21.0389 4.85091 24.2951 -24.71 -16.2443 
-29.7311 77.6669 -23.3206 101.728 -30.4052 98.2061 -168.373 48.1391 86.6575 -79.8731 14.963 -0.245049 61.1051 5.25413 3.32313 36.8061 6.37913 4.87683 172.145 41.7787 90.3498 -31.2391 -6.4369 1.8433 44.3589 3.82166 3.65631 18.3008 -0.241314 -1.78871 0.54748 10.0368 -90.5852 6.80319 0.843462 -1.18674 -4.86805 0.790418 -1.22271 -27.4027 1.16113 -0.878399 -7.39009 1.16112 -0.878402 91.0821 -53.2391 -98.497 8.07383 -2.60648 -5.03259 1.62765 -7.21752 -60.1845 -17.4751 -0.550545 -1.56786 -97.2513 -46.9556 66.9719 -28.7304 11.1845 20.1339 5.3817 11.2552 -34.9554 15.3024 1.57628 6.31807 -14.5106 -21.9728 4.4156 24.5499 -25.7084 -16.4792 
-28.2982 76.4882 -20.17 100.975 -27.3409 97.9705 -171.315 51.74 88.7431 -85.71 18.928 0.636346 57.2033 2.10252 1.93996 36.3615 6.02413 8.7754 171.637 46.3638 90.7605 -42.919 -4.68714 1.75113 50.5916 1.75134 1.60254 19.3311 -0.116814 -2.50337 0.521905 10.0965 -90.72 6.68356 0.735481 -1.44664 -4.988 0.671123 -1.47761 -27.5204 1.13625 -1.15876 -7.50771 1.13622 -1.15877 91.2981 -53.4201 -98.1417 7.90146 -0.820564 -4.87518 -2.65501 -9.56187 -59.4411 -15.0589 -0.529258 -1.27152 -96.9267 -46.0087 67.1339 -27.1621 11.6119 21.0578 6.33922 11.9289 -36.5709 14.9279 1.49017 5.99339 -14.1379 -22.8253 3.73784 24.806 -26.5641 -16.4711 
-26.8925 75.1675 -17.4771 101.266 -26.1498 98.8668 -174.512 53.611 92.1935 -90.077 21.5478 1.20968 56.2687 1.46078 2.6913 37.5572 7.09778 8.20437 171.066 49.0428 92.3755 -50.4353 -3.88242 1.41279 52.9982 0.506397 0.579038 21.3845 -0.152329 -1.69748 0.628894 10.2697 -90.8979 6.33784 0.876183 -1.79723 -5.3341 0.79625 -1.83404 -27.8646 1.37576 -1.45091 -7.85194 1.37576 -1.45093 89.9211 -52.6529 -100.341 7.60619 1.09093 -4.44292 -6.23169 -11.8869 -58.6349 -16.0572 -0.659631 -0.608689 -96.8529 -45.8406 67.1873 -25.7623 11.5426 22.0298 6.52498 11.2736 -37.9809 15.3037 1.5394 6.08508 -12.7359 -23.2793 4.13951 24.4974 -26.9827 -16.4882 
-25.6793 74.264 -15.0259 101.583 -25.115 99.1338 -175.809 54.2854 94.0637 -93.1109 22.0604 1.49783 54.3978 0.640203 3.3939 40.0815 9.45387 9.45483 169.161 50.0841 93.4448 -54.3226 -3.12625 2.08376 55.7671 -0.113083 0.1417 19.9915 -0.296864 -1.03212 0.63652 10.4705 -90.9818 5.93609 0.859552 -1.95542 -5.7361 0.772626 -1.99135 -28.2649 1.40742 -1.60683 -8.25229 1.4074 -1.60684 88.8967 -52.4216 -101.915 6.15014 1.53179 -6.15832 -5.23205 -11.9983 -55.2995 -15.3667 -0.711578 -0.0833215 -96.8418 -45.5486 67.102 -24.9942 11.6865 22.6883 6.85275 11.4195 -38.8185 15.9902 1.67405 6.51526 -10.9337 -23.6596 4.72631 23.2383 -27.2853 -16.803 
-24.1882 72.6598 -12.325 101.558 -23.9946 98.4646 -175.758 55.5937 94.6134 -98.581 22.1467 1.71043 52.5972 -1.06876 3.97816 42.5207 11.5938 8.54966 167.874 52.9205 93.9277 -60.3061 -2.66894 2.02067 58.3021 -1.20557 -0.623519 22.0847 -0.130668 -1.66535 0.619146 10.5665 -91.0227 5.74365 0.809305 -2.0315 -5.92868 0.719135 -2.06513 -28.4564 1.38238 -1.6945 -8.44371 1.38236 -1.69451 88.9386 -52.2319 -101.898 5.10921 2.68914 -7.41192 -7.38198 -14.1844 -53.8572 -15.1288 -0.842062 0.885868 -96.9168 -45.5479 66.9868 -23.9632 12.9572 22.9295 6.44043 11.5569 -38.8865 14.4609 1.66497 7.42528 -10.4545 -24.1098 5.64666 22.8888 -27.8224 -17.3249 
-22.6287 70.8939 -10.1102 101.866 -23.2428 98.2813 -176.079 56.2701 95.3354 -104.358 23.2981 1.78651 48.3935 -4.01751 3.04039 48.1693 16.4428 7.36102 165.873 55.2713 94.9072 -65.9483 -2.2973 2.09574 61.0114 -2.23007 -1.26685 22.1454 -0.0724222 -2.12198 0.703938 10.6376 -91.1491 5.60218 0.927375 -2.28058 -6.0705 0.826138 -2.31916 -28.5964 1.56977 -1.89665 -8.58374 1.56978 -1.89665 89.5459 -51.5319 -101.155 4.46364 3.51757 -8.50344 -8.13782 -16.2075 -51.4279 -13.8952 -0.970713 2.21049 -97.6575 -45.9378 65.9956 -22.9678 13.9042 23.4395 6.47319 12.3365 -38.4657 13.2257 1.3773 6.35487 -9.98523 -24.9449 6.96484 22.1284 -28.7144 -17.9586 
-20.9574 68.9869 -8.28 102.165 -23.102 98.7143 -177.104 56.3591 97.0004 -109.677 24.9821 1.75234 44.6766 -6.79282 -0.627709 50.0052 18.4855 9.33932 164.247 57.5465 96.9777 -72.1915 -0.494018 1.90057 63.2427 -3.04127 -1.71883 22.6291 -0.191843 -0.968125 0.803243 10.7009 -91.2694 5.47695 1.07693 -2.51834 -6.19607 0.965083 -2.56327 -28.7204 1.78387 -2.07854 -8.70781 1.78385 -2.07855 88.9043 -50.7088 -102.322 4.0257 4.4192 -8.69363 -8.51579 -17.5137 -49.5082 -13.1218 -0.991472 2.63711 -97.5848 -45.9042 66.0939 -22.8973 14.1976 24.4377 5.99908 12.0022 -38.3386 14.045 1.42991 6.14012 -9.63424 -25.3258 7.96159 21.9981 -29.1984 -18.3693 
-19.4134 67.0809 -6.67124 102.114 -22.6169 99.2487 -178.332 55.9192 98.7918 -113.035 27.7237 1.58877 39.8788 -10.3436 -4.69386 51.1129 19.8236 10.7438 160.381 59.3596 100.042 -78.0971 -0.389688 1.9187 66.3184 -4.17141 -2.30008 24.2414 -0.174824 -0.511141 0.873285 10.7286 -91.4007 5.42247 1.16299 -2.777 -6.25102 1.03972 -2.82546 -28.7728 1.94363 -2.29947 -8.76017 1.94364 -2.29947 88.9613 -50.5853 -102.266 3.58484 5.21855 -9.39254 -9.85351 -19.5563 -48.2292 -12.6198 -1.04419 3.21532 -97.4682 -45.9293 66.2803 -22.4655 14.6178 25.3834 6.31043 12.6658 -38.4435 13.9894 1.36799 5.74946 -9.58107 -25.7985 8.18636 22.0006 -29.728 -18.6821 
